<svg width="25" height="24" viewBox="0 0 25 24" fill="none" xmlns="http://www.w3.org/2000/svg">
<path fill-rule="evenodd" clip-rule="evenodd" d="M17.8337 6.16884C17.8337 8.08484 17.3572 10.5838 16.6245 10.2044C16.0694 12.0174 14.3814 13.3359 12.3853 13.3359C10.0877 13.3359 8.19844 11.5891 7.97488 9.35213C7.24757 8.08008 6.29331 5.53187 8.74624 3.54504C8.79001 3.53059 8.81711 3.41136 8.85722 3.23511C9.00865 2.56907 9.34524 1.08877 11.4665 1.37137C13.1028 1.58937 17.8337 2.43326 17.8337 6.16884ZM15.7252 7.37645C15.7252 7.37645 15.4749 8.1082 15.7096 8.92411C15.7003 10.7507 14.2155 12.2286 12.3853 12.2286C10.5916 12.2286 9.12965 10.8092 9.06328 9.03301C9.14367 8.72856 9.14334 8.21284 9.14295 7.6401C9.14228 6.60644 9.14151 5.38715 9.61506 4.88948C12.9332 7.09769 15.7252 7.37645 15.7252 7.37645Z" fill="white"/>
<path d="M5.7219 17.9074C5.7219 17.2889 6.04034 16.7469 6.51779 16.4454C6.50012 16.3767 6.48306 16.305 6.46667 16.2313C6.39017 15.8875 6.32073 15.4694 6.26979 15.0495C6.22262 14.6606 6.1899 14.2586 6.18356 13.9034C3.83852 14.8502 1.83301 16.5003 1.83301 18.233V21.3359H21.833V18.233C21.833 16.5737 19.9938 14.9902 17.7785 14.0274L17.779 14.0431C17.7885 14.3918 17.7695 14.7915 17.7332 15.1767C17.6997 15.533 17.6503 15.8887 17.591 16.1931H17.9441C18.1546 16.1931 18.3469 16.3154 18.441 16.509L18.9966 17.6518C19.0352 17.7311 19.0552 17.8187 19.0552 17.9074V19.0502C19.0552 19.3658 18.8065 19.6217 18.4997 19.6217H17.3886V18.4788H17.9441V18.0423L17.6008 17.3359H16.0652L15.7219 18.0423V18.4788H16.2775V19.6217H15.1663C14.8595 19.6217 14.6108 19.3658 14.6108 19.0502V17.9074C14.6108 17.8187 14.6308 17.7311 14.6695 17.6518L15.225 16.509C15.3191 16.3154 15.5115 16.1931 15.7219 16.1931H16.4526C16.4646 16.144 16.4769 16.0895 16.4892 16.0299C16.5447 15.7605 16.5941 15.4191 16.6273 15.0666C16.6605 14.7137 16.6762 14.3634 16.6683 14.0752C16.6643 13.9309 16.6547 13.811 16.6409 13.7187C16.6288 13.6377 16.6166 13.6003 16.614 13.5923C16.614 13.5923 16.614 13.5924 16.614 13.5923C16.6135 13.5907 16.6133 13.5903 16.6137 13.5911C16.6137 13.591 16.6138 13.5913 16.6137 13.5911L16.6157 13.5906C16.3188 13.4958 16.0198 13.413 15.7219 13.3431C15.4426 13.2777 15.1538 13.6732 15.0271 13.9209H12.7692C12.2746 13.921 12.023 13.921 11.7757 13.9209H11.7671C11.5143 13.9209 11.2629 13.9208 10.7574 13.9209H8.49967C8.48417 13.8906 8.46834 13.8582 8.45195 13.8246C8.3344 13.5834 8.18929 13.2857 7.94412 13.3431C7.73029 13.3933 7.51595 13.4501 7.30223 13.5131C7.29601 13.5978 7.29295 13.6987 7.29367 13.8145C7.29562 14.1305 7.32501 14.5176 7.3724 14.9081C7.41967 15.2978 7.48317 15.6772 7.54973 15.9763C7.56906 16.0631 7.58806 16.1405 7.60629 16.2076C8.4239 16.3173 9.05523 17.0365 9.05523 17.9074C9.05523 18.8542 8.30906 19.6217 7.38856 19.6217C6.46806 19.6217 5.7219 18.8542 5.7219 17.9074Z" fill="white"/>
<path d="M8.50033 18.0026C8.50033 18.3799 8.19259 18.6693 7.83366 18.6693C7.47473 18.6693 7.16699 18.3799 7.16699 18.0026C7.16699 17.6254 7.47473 17.3359 7.83366 17.3359C8.19259 17.3359 8.50033 17.6254 8.50033 18.0026Z" fill="white"/>
</svg>
