<svg width="25" height="24" viewBox="0 0 25 24" fill="none" xmlns="http://www.w3.org/2000/svg">
<path d="M11.833 12C12.9376 12 13.833 11.1045 13.833 10C13.833 8.89545 12.9376 8 11.833 8C10.7285 8 9.83301 8.89545 9.83301 10C9.83301 11.1045 10.7285 12 11.833 12Z" fill="white"/>
<path fill-rule="evenodd" clip-rule="evenodd" d="M3.16699 10.7804C3.16699 12.9705 3.90371 14.9866 5.14006 16.5885L4.44689 18.249C3.83532 19.7141 4.89822 21.3359 6.46989 21.3359H18.5308C20.1025 21.3359 21.1654 19.7141 20.5538 18.249L19.8606 16.5885C21.0969 14.9865 21.8337 12.9705 21.8337 10.7804C21.8337 5.56438 17.655 1.33594 12.5003 1.33594C7.34569 1.33594 3.16699 5.56438 3.16699 10.7804ZM15.2454 15.7804L16.1239 20.2248H18.5308C19.3167 20.2248 19.8481 19.4139 19.5423 18.6814L16.9471 12.4644C16.7754 12.053 16.3769 11.7857 15.9356 11.7857H15.0454C15.3094 11.461 15.5139 11.085 15.642 10.6746H15.9356C16.3772 10.6746 16.7974 10.8085 17.1501 11.0453C17.1897 10.7973 17.2103 10.5427 17.2103 10.2833C17.2103 7.66722 15.1145 5.54644 12.5292 5.54644C9.94393 5.54644 7.8481 7.66722 7.8481 10.2833C7.8481 10.5308 7.86687 10.7739 7.90305 11.0112C8.24454 10.7957 8.64511 10.6746 9.06511 10.6746H9.35867C9.48681 11.085 9.69132 11.461 9.95529 11.7857H9.06511C8.62381 11.7857 8.22533 12.053 8.0536 12.4644L5.45838 18.6814C5.15263 19.4139 5.68403 20.2248 6.46989 20.2248H8.8768L9.75523 15.7804H9.43378L8.3404 19.0994C8.19662 19.5361 7.73022 19.772 7.29875 19.6265C6.86722 19.481 6.63405 19.009 6.77789 18.5724L8.17465 14.3322C8.43621 13.5382 9.17052 13.0026 9.99762 13.0026H15.003C15.8301 13.0026 16.5644 13.5382 16.826 14.3322L18.2228 18.5724C18.3666 19.009 18.1334 19.481 17.7019 19.6265C17.2704 19.772 16.804 19.5361 16.6602 19.0994L15.5669 15.7804H15.2454ZM10.2031 4.4856C10.9554 4.17649 11.7607 4.02038 12.5727 4.02616C13.3847 4.03194 14.1877 4.19949 14.9357 4.51927L15.3631 3.49577C14.4822 3.11919 13.5367 2.92187 12.5804 2.91507C11.6242 2.90827 10.676 3.09211 9.78998 3.45612L10.2031 4.4856Z" fill="white"/>
</svg>
